HIERARCHY
ROOT root
{
	OFFSET	0	13.1	24.9
	CHANNELS 6  Xposition Yposition Zposition Xrotation Yrotation Zrotation
	JOINT spine_1
	{
		OFFSET	0	9.99999	0
		CHANNELS 3  Xrotation Yrotation Zrotation
		JOINT spine_2
		{
			OFFSET	0	112	-10
			CHANNELS 3  Xrotation Yrotation Zrotation
			JOINT spine_3
			{
				OFFSET	0	206.5	19.3
				CHANNELS 3  Xrotation Yrotation Zrotation
				JOINT spine_4
				{
					OFFSET	0	110.4	14.6
					CHANNELS 3  Xrotation Yrotation Zrotation
					JOINT neck_1
					{
						OFFSET	0	71.8	-50.3
						CHANNELS 3  Xrotation Yrotation Zrotation
						JOINT neck_2
						{
							OFFSET	0	86.2	-25.8
							CHANNELS 3  Xrotation Yrotation Zrotation
							JOINT head_ee
							{
								OFFSET	0	179.8	-8.7
								CHANNELS 3  Xrotation Yrotation Zrotation
								End Site
								{
									OFFSET	1	0	0
								}
							}
						}
					}
					JOINT left_clavicle
					{
						OFFSET	-43.2	22.4	-70.8
						CHANNELS 3  Xrotation Yrotation Zrotation
						JOINT left_shoulder
						{
							OFFSET	-93.9	-5.79999	48.7
							CHANNELS 3  Xrotation Yrotation Zrotation
							JOINT left_elbow
							{
								OFFSET	-291.4	-30.8	15.2
								CHANNELS 3  Xrotation Yrotation Zrotation
								JOINT left_lowarm_twist
								{
									OFFSET	-110.7	-3.89999	13.6
									CHANNELS 3  Xrotation Yrotation Zrotation
									JOINT left_hand
									{
										OFFSET	-110.7	-3.89999	13.6
										CHANNELS 3  Xrotation Yrotation Zrotation
										JOINT left_ee
										{
											OFFSET	-80.8	-5.10001	12.1
											CHANNELS 3  Xrotation Yrotation Zrotation
											End Site
											{
												OFFSET	1	0	0
											}
										}
									}
								}
							}
						}
					}
					JOINT right_clavicle
					{
						OFFSET	43.2	22.4	-70.8
						CHANNELS 3  Xrotation Yrotation Zrotation
						JOINT right_shoulder
						{
							OFFSET	93.9	-5.79999	48.7
							CHANNELS 3  Xrotation Yrotation Zrotation
							JOINT right_elbow
							{
								OFFSET	291.4	-30.8	15.2
								CHANNELS 3  Xrotation Yrotation Zrotation
								JOINT right_lowarm_twist
								{
									OFFSET	110.7	-3.89999	13.6
									CHANNELS 3  Xrotation Yrotation Zrotation
									JOINT right_hand
									{
										OFFSET	110.7	-3.89999	13.6
										CHANNELS 3  Xrotation Yrotation Zrotation
										JOINT right_ee
										{
											OFFSET	80.8	-5.10001	12.1
											CHANNELS 3  Xrotation Yrotation Zrotation
											End Site
											{
												OFFSET	1	0	0
											}
										}
									}
								}
							}
						}
					}
				}
			}
		}
	}
	JOINT left_hip
	{
		OFFSET	-82.8	-127.5	0.300001
		CHANNELS 3  Xrotation Yrotation Zrotation
		JOINT left_knee
		{
			OFFSET	-28.2	-396.7	2.2
			CHANNELS 3  Xrotation Yrotation Zrotation
			JOINT left_ankle
			{
				OFFSET	-11.7	-411.3	35.4
				CHANNELS 3  Xrotation Yrotation Zrotation
				JOINT left_toes
				{
					OFFSET	0	-60	-88.6
					CHANNELS 3  Xrotation Yrotation Zrotation
					JOINT left_foot_ee
					{
						OFFSET	-22.5	-16.5	-42.2
						CHANNELS 3  Xrotation Yrotation Zrotation
						End Site
						{
							OFFSET	1	0	0
						}
					}
				}
			}
		}
	}
	JOINT right_hip
	{
		OFFSET	82.8	-127.5	0.300001
		CHANNELS 3  Xrotation Yrotation Zrotation
		JOINT right_knee
		{
			OFFSET	28.2	-396.7	2.2
			CHANNELS 3  Xrotation Yrotation Zrotation
			JOINT right_ankle
			{
				OFFSET	11.7	-411.3	35.4
				CHANNELS 3  Xrotation Yrotation Zrotation
				JOINT right_toes
				{
					OFFSET	0	-60	-88.6
					CHANNELS 3  Xrotation Yrotation Zrotation
					JOINT right_foot_ee
					{
						OFFSET	22.5	-16.5	-42.2
						CHANNELS 3  Xrotation Yrotation Zrotation
						End Site
						{
							OFFSET	1	0	0
						}
					}
				}
			}
		}
	}
}
MOTION
Frames: 12
Frame Time: 0.02
2854.36969463 701.189 -1879.96832646 -6.66625754166 29.0848999555 0.586971529068 2.67119 0.598984 2.39368 2.67427 0.4455 2.42692 2.6926 0.0415778 2.4671 2.68436 0.430572 2.42961 -3.60159 15.3596 -3.36353 -3.15361 30.6226 -1.19721 -0.0 0.0 -0.0 -3.19212 20.0234 -2.35878 -5.22717 -37.9908 55.5933 1.48863 -36.4036 0.489514 -15.7406 -0.81227 1.83516 -3.30246 8.76755 -17.9735 -0.0 0.0 -0.0 9.41819 12.1973 -18.5123 -22.1222 18.5936 -70.4405 0.214055 6.05297 -0.0113173 -25.1867 1.53049 -2.80714 0.58988 7.17941 -0.93553 0.0 0.0 0.0 13.7029 2.01131 -0.646098 -22.5937 0.255822 3.43532 37.4454 7.83257 -4.63426 -18.7722 0.0 0.0 -0.0 0.0 -0.0 31.3906 30.683 -4.5949 -65.1432 2.7802 -9.06669 40.7676 -20.2248 5.10429 -10.2156 0.0 0.0 0.0 0.0 0.0 
2852.09488093 701.189 -1876.44270647 -6.70718170813 29.7045254153 0.670348903627 2.67119 0.598984 2.39368 2.67427 0.4455 2.42692 2.6926 0.0415778 2.4671 2.68436 0.430572 2.42961 -3.60159 15.3596 -3.36353 -3.15361 30.6226 -1.19721 -0.0 0.0 -0.0 -3.19212 20.0234 -2.35878 -5.22717 -37.9908 55.5933 1.48863 -36.4036 0.489514 -15.7406 -0.81227 1.83516 -3.30246 8.76755 -17.9735 -0.0 0.0 -0.0 9.41819 12.1973 -18.5123 -22.1222 18.5936 -70.4405 0.214055 6.05297 -0.0113173 -25.1867 1.53049 -2.80714 0.58988 7.17941 -0.93553 0.0 0.0 0.0 13.7029 2.01131 -0.646098 -22.5937 0.255822 3.43532 37.4454 7.83257 -4.63426 -18.7722 0.0 0.0 -0.0 0.0 -0.0 31.3906 30.683 -4.5949 -65.1432 2.7802 -9.06669 40.7676 -20.2248 5.10429 -10.2156 0.0 0.0 0.0 0.0 0.0 
2833.40035913 701.222 -1876.86642955 -6.64909638127 29.5262391754 1.48167311055 2.59536 0.760852 2.2298 2.59791 0.61746 2.27366 2.62211 0.233602 2.34437 2.61495 0.600824 2.27811 -5.01845 15.578 -2.72711 -4.74996 30.7129 -0.0945064 -0.0 0.0 -0.0 -3.58706 21.6677 -2.59093 -3.54772 -34.5267 54.4747 1.82308 -42.0812 0.701349 -16.4845 -0.862895 1.91583 -3.50151 7.53389 -20.0255 -0.0 0.0 -0.0 9.35273 12.2091 -18.3688 -22.8569 19.2262 -70.5726 0.243802 6.88656 -0.0146693 -25.5494 1.56121 -2.84202 0.934191 5.5391 -3.95454 0.0 0.0 0.0 11.8998 1.50077 -0.382767 -21.0178 0.282152 3.19495 34.2887 7.62687 -4.33139 -19.0922 0.0 0.0 -0.0 0.0 -0.0 34.2464 25.0061 -6.0088 -62.7285 2.50171 -8.81901 40.9305 -19.2286 5.09569 -10.5716 0.0 0.0 0.0 0.0 0.0 
2813.2515823 707.548 -1874.52236802 -5.93892754154 30.5389905969 1.63116980101 2.50799 0.664305 2.17159 2.51047 0.52481 2.20943 2.53045 0.149123 2.26598 2.52364 0.505033 2.21404 -6.12366 15.7592 -2.22691 -5.99356 30.8096 0.770451 -0.0 0.0 -0.0 -3.86604 22.9487 -2.70452 -2.65553 -32.1137 53.647 2.09573 -46.0671 0.891116 -17.01 -0.899285 1.97241 -3.56188 6.47706 -21.0361 -0.0 0.0 -0.0 9.29939 12.0741 -18.2563 -23.4204 19.677 -70.9707 0.265697 7.49826 -0.0174107 -25.8058 1.58306 -2.86657 1.20407 4.37963 -6.26691 0.0 0.0 0.0 10.3415 1.67714 -0.466846 -19.916 0.29663 3.0265 31.9058 8.02276 -4.09108 -19.3147 0.0 0.0 -0.0 0.0 -0.0 37.2145 20.0682 -6.85849 -60.5669 2.26151 -8.5876 41.0537 -18.5357 5.09148 -10.8389 0.0 0.0 0.0 0.0 0.0 
2753.85472074 701.414 -1894.80568576 -9.25335419296 29.5134363501 4.73014947022 3.21535 0.018237 1.9851 3.21754 -0.108092 1.98224 3.21295 -0.414311 1.94148 3.2077 -0.102554 1.98253 -4.4857 15.7008 -2.80366 -4.14974 30.9333 -0.307149 -0.0 0.0 -0.0 -3.68698 22.672 -2.51498 0.069834 -26.2884 51.4732 2.42751 -50.2458 1.13845 -15.6247 -0.804479 1.82254 -3.25244 2.37249 -21.0624 -0.0 0.0 -0.0 8.82967 12.2728 -17.226 -25.1828 19.8775 -71.1164 0.192603 5.45022 -0.00916759 -25.9575 1.59603 -2.88105 1.90789 1.76483 -12.1422 0.0 0.0 0.0 4.48401 8.17841 0.388631 -15.0108 0.321692 2.27455 36.4602 9.19631 -4.54793 -18.8756 0.0 0.0 -0.0 0.0 -0.0 41.8822 13.0535 -7.05956 -40.8823 0.523848 -6.12134 35.2586 -23.3569 4.64455 -11.3019 0.0 0.0 0.0 0.0 0.0 
2732.61991338 705.25 -1907.77592036 -10.1748434685 28.4095726091 4.67350918015 3.20519 0.127321 1.96637 3.20735 0.00196205 1.97049 3.2066 -0.30392 1.94692 3.20131 0.0073124 1.97048 -3.74027 15.3929 -3.73407 -3.28477 30.9792 -1.54221 -0.0 0.0 -0.0 -3.28346 22.5012 -1.98422 -0.0510637 -25.0808 52.3624 2.74943 -53.7033 1.39215 -16.5893 -0.870111 1.92714 -3.08939 0.0775702 -21.0805 -0.0 0.0 -0.0 8.61479 10.9984 -16.8024 -26.2308 19.4694 -69.7012 0.259251 7.31835 -0.0165796 -25.4304 1.5511 -2.8306 2.21263 2.70208 -13.8597 0.0 0.0 0.0 2.47536 10.7537 2.31701 -11.0096 0.294446 1.66135 35.2946 7.80135 -4.43038 -19.1245 0.0 0.0 -0.0 0.0 -0.0 44.3517 14.3566 -7.16792 -36.401 0.253821 -5.48787 33.1094 -24.346 4.44049 -10.9902 0.0 0.0 0.0 0.0 0.0 
2712.48084509 704.418 -1921.05916285 -10.7342841394 27.6799340875 4.74729993359 3.05817 0.173974 1.811 3.05999 0.0584018 1.8184 3.06125 -0.229094 1.80486 3.0567 0.0587762 1.81838 -3.23919 15.172 -4.38072 -2.69751 31.011 -2.40243 -0.0 0.0 -0.0 -3.02745 22.3165 -1.66111 0.125909 -24.223 52.7827 3.05481 -56.5306 1.64274 -17.223 -0.914188 1.99525 -2.97371 -1.60514 -21.0942 -0.0 0.0 -0.0 8.44681 10.0638 -16.4678 -27.6169 18.9965 -68.338 0.297392 8.38069 -0.0217888 -25.0616 1.51995 -2.79506 2.40649 3.29363 -14.9617 0.0 0.0 0.0 0.694746 12.5897 4.05582 -8.20945 0.249948 1.23403 34.4662 6.82389 -4.34723 -19.2969 0.0 0.0 -0.0 0.0 -0.0 46.1564 15.2513 -7.29984 -32.7259 0.0699591 -4.95417 31.6137 -25.1757 4.29592 -10.7473 0.0 0.0 0.0 0.0 0.0 
2697.92914922 697.282 -1941.56772806 -11.6067609482 26.3011984199 4.78935636494 3.15127 0.368681 1.68498 3.15281 0.26073 1.70502 3.16007 -0.00834158 1.72481 3.15601 0.264125 1.7045 -2.99561 15.1381 -4.85902 -2.39376 31.2887 -2.98806 -0.0 0.0 -0.0 -2.83201 21.9624 -1.45393 0.267715 -23.6199 53.0563 3.29615 -58.5017 1.84634 -17.6639 -0.945302 2.04236 -2.79162 -2.81248 -20.378 -0.0 0.0 -0.0 8.36513 9.58682 -16.3053 -28.1911 18.6141 -66.8255 0.326405 9.18495 -0.0262189 -24.7321 1.49231 -2.76314 2.52474 3.58117 -15.6673 0.0 0.0 0.0 -0.60631 13.8392 5.2857 -6.28636 0.207314 0.942015 33.4241 6.46275 -4.24321 -19.39 0.0 0.0 -0.0 0.0 -0.0 47.2234 14.4801 -6.19554 -27.2714 -0.138867 -4.14346 30.6341 -25.6998 4.198 -10.5795 0.0 0.0 0.0 0.0 0.0 
2701.71855701 697.282 -1948.12999496 -11.5299852167 25.5293001517 4.61368884731 3.15127 0.368681 1.68498 3.15281 0.26073 1.70502 3.16007 -0.00834158 1.72481 3.15601 0.264125 1.7045 -2.99561 15.1381 -4.85902 -2.39376 31.2887 -2.98806 -0.0 0.0 -0.0 -2.83201 21.9624 -1.45393 0.267715 -23.6199 53.0563 3.29615 -58.5017 1.84634 -17.6639 -0.945302 2.04236 -2.79162 -2.81248 -20.378 -0.0 0.0 -0.0 8.36513 9.58682 -16.3053 -28.1911 18.6141 -66.8255 0.326405 9.18495 -0.0262189 -24.7321 1.49231 -2.76314 2.52474 3.58117 -15.6673 0.0 0.0 0.0 -0.60631 13.8392 5.2857 -6.28636 0.207314 0.942015 33.4241 6.46275 -4.24321 -19.39 0.0 0.0 -0.0 0.0 -0.0 47.2234 14.4801 -6.19554 -27.2714 -0.138867 -4.14346 30.6341 -25.6998 4.198 -10.5795 0.0 0.0 0.0 0.0 0.0 
2689.87349894 690.677 -1965.01904407 -11.7397845409 24.7033395002 4.69180870804 3.00908 0.459705 1.56886 3.01038 0.358955 1.59493 3.02003 0.101903 1.63163 3.01649 0.358277 1.59508 -2.92235 15.1553 -5.08587 -2.29357 31.4858 -3.25034 -0.0 0.0 -0.0 -2.6869 21.7531 -1.28747 0.669493 -23.2507 53.6278 3.56308 -60.4507 2.07631 -17.9719 -0.967251 2.07513 -2.66416 -3.65609 -19.8706 -0.0 0.0 -0.0 8.38561 9.08351 -16.3614 -28.6455 18.316 -66.2 0.343497 9.65706 -0.0290165 -24.5021 1.47312 -2.74076 2.60635 3.71067 -16.1846 0.0 0.0 0.0 -1.7995 14.7786 6.4592 -4.94885 0.17189 0.739815 32.7752 6.22827 -4.17749 -19.4321 0.0 0.0 -0.0 0.0 -0.0 48.4318 13.9702 -5.77446 -22.4015 -0.259387 -3.40605 29.9474 -26.0666 4.12803 -10.4753 0.0 0.0 0.0 0.0 0.0 
2694.4408749 690.677 -1972.41500559 -11.6598544287 23.8475395935 4.49739561162 3.00908 0.459705 1.56886 3.01038 0.358955 1.59493 3.02003 0.101903 1.63163 3.01649 0.358277 1.59508 -2.92235 15.1553 -5.08587 -2.29357 31.4858 -3.25034 -0.0 0.0 -0.0 -2.6869 21.7531 -1.28747 0.669493 -23.2507 53.6278 3.56308 -60.4507 2.07631 -17.9719 -0.967251 2.07513 -2.66416 -3.65609 -19.8706 -0.0 0.0 -0.0 8.38561 9.08351 -16.3614 -28.6455 18.316 -66.2 0.343497 9.65706 -0.0290165 -24.5021 1.47312 -2.74076 2.60635 3.71067 -16.1846 0.0 0.0 0.0 -1.7995 14.7786 6.4592 -4.94885 0.17189 0.739815 32.7752 6.22827 -4.17749 -19.4321 0.0 0.0 -0.0 0.0 -0.0 48.4318 13.9702 -5.77446 -22.4015 -0.259387 -3.40605 29.9474 -26.0666 4.12803 -10.4753 0.0 0.0 0.0 0.0 0.0 
2660.92482394 674.894 -1999.54535113 -13.5829076183 24.1566244066 5.33314131095 3.09581 0.393925 1.46002 3.09695 0.300232 1.48212 3.10438 0.0639842 1.51087 3.10132 0.301768 1.48181 -3.0483 15.2773 -4.8338 -2.44567 31.5283 -2.92781 -0.0 0.0 -0.0 -2.41626 19.5849 -1.2927 1.41617 -23.0838 53.8337 3.886 -62.5318 2.36013 -17.3724 -0.924692 2.01125 -2.24958 -3.67891 -16.9398 -0.0 0.0 -0.0 8.67945 8.68312 -16.9975 -28.8365 18.0833 -64.8412 0.359908 10.1091 -0.0318333 -23.8595 1.42 -2.67785 2.8162 5.54295 -16.8835 0.0 0.0 0.0 -2.94975 15.8766 7.66476 -3.35765 0.12361 0.500394 34.6178 5.58361 -4.36116 -19.9824 0.0 0.0 -0.0 0.0 -0.0 43.8689 10.4758 -7.12946 4.4201 0.207091 0.646384 21.2005 -23.5279 3.00176 -12.3923 0.0 0.0 0.0 0.0 0.0 
